<?xml version="1.0" standalone="no"?>
<!DOCTYPE svg PUBLIC "-//W3C//DTD SVG 20010904//EN"
 "http://www.w3.org/TR/2001/REC-SVG-20010904/DTD/svg10.dtd">
<svg version="1.0" xmlns="http://www.w3.org/2000/svg"
 width="260.000000pt" height="260.000000pt" viewBox="0 0 260.000000 260.000000"
 preserveAspectRatio="xMidYMid meet">
<metadata>
Created by potrace 1.11, written by Peter Selinger 2001-2013
</metadata>
<g transform="translate(0.000000,260.000000) scale(0.100000,-0.100000)"
fill="#000000" stroke="none">
<path d="M980 1920 l0 -100 100 0 100 0 0 100 0 100 -100 0 -100 0 0 -100z"/>
<path d="M1693 1689 c-31 -12 -66 -36 -87 -59 l-36 -40 0 50 0 50 -100 0 -100
0 0 -405 0 -405 99 0 99 0 4 238 3 239 30 48 c35 57 95 92 170 101 l50 6 -3
99 -3 99 -37 -1 c-20 0 -60 -9 -89 -20z"/>
<path d="M980 1263 c0 -236 -4 -433 -8 -439 -11 -16 -48 -34 -71 -34 -20 0
-21 -6 -21 -91 l0 -92 79 5 c90 5 162 35 195 81 20 28 21 42 24 513 l3 484
-101 0 -100 0 0 -427z"/>
</g>
</svg>
